<svg width="197" height="248" viewBox="0 0 197 248" fill="none" xmlns="http://www.w3.org/2000/svg">
<path d="M76.5434 192.58C78.2434 180.34 86.0634 175.58 102.383 168.78L120.403 161.3C167.323 141.92 195.543 121.86 195.543 73.92C195.543 32.44 162.223 0.479985 101.023 0.479985C31.3234 0.479985 3.44344 38.56 3.78344 89.9H68.3834C68.3834 66.78 77.9034 55.9 99.3234 55.9C117.683 55.9 128.223 64.06 128.223 81.06C128.223 96.7 119.383 105.54 94.2234 114.38L79.6034 119.48C9.56344 143.96 3.44344 188.84 1.40344 223.52L0.0434378 248H196.903V192.58H76.5434Z" fill="#CFECFA"/>
</svg>
