<svg width="218" height="245" viewBox="0 0 218 245" fill="none" xmlns="http://www.w3.org/2000/svg">
<path d="M59.3718 202.62C60.6718 193.26 66.6518 189.62 79.1318 184.42L92.9118 178.7C128.792 163.88 150.372 148.54 150.372 111.88C150.372 80.16 124.892 55.72 78.0918 55.72C24.7918 55.72 3.4718 84.84 3.7318 124.1H53.1318C53.1318 106.42 60.4118 98.1 76.7918 98.1C90.8318 98.1 98.8918 104.34 98.8918 117.34C98.8918 129.3 92.1318 136.06 72.8918 142.82L61.7118 146.72C8.1518 165.44 3.4718 199.76 1.9118 226.28L0.871797 245H151.412V202.62H59.3718ZM217.902 0.339988H193.202C187.482 18.54 173.962 20.36 163.562 20.36V42.2H186.442V107.72H217.902V0.339988Z" fill="#CFECFA"/>
</svg>
