<svg width="192" height="192" viewBox="0 0 192 192" fill="none" xmlns="http://www.w3.org/2000/svg">
<path d="M169.776 147.322C169.776 110.432 188.885 85.0985 188.885 67.3225C188.885 49.5465 178.667 12.2131 96.8907 12.2131C15.1147 12.2131 3.10938 62.4371 3.10938 81.9891C3.10938 173.546 169.776 212.656 169.776 147.322Z" fill="#EFEFEF"/>
<path d="M141.333 69.3335C136.923 69.3335 133.333 65.7442 133.333 61.3335C133.333 56.9228 136.923 53.3335 141.333 53.3335C145.744 53.3335 149.333 56.9228 149.333 61.3335C149.333 65.7442 145.744 69.3335 141.333 69.3335ZM141.333 58.6668C139.867 58.6668 138.667 59.8615 138.667 61.3335C138.667 62.8055 139.867 64.0002 141.333 64.0002C142.8 64.0002 144 62.8055 144 61.3335C144 59.8615 142.8 58.6668 141.333 58.6668Z" fill="#A4AFC1"/>
<path d="M113.333 134.667H36V116C36 107.163 43.1627 100 52 100H97.3333C106.171 100 113.333 107.163 113.333 116V134.667Z" fill="#F3F3F1"/>
<path d="M74.6667 81.3335C85.7124 81.3335 94.6667 72.3792 94.6667 61.3335C94.6667 50.2878 85.7124 41.3335 74.6667 41.3335C63.6211 41.3335 54.6667 50.2878 54.6667 61.3335C54.6667 72.3792 63.6211 81.3335 74.6667 81.3335Z" fill="#F3F3F1"/>
<path d="M94.6133 60.2668C85.5466 61.6535 80 52.0002 80 52.0002C70.6133 60.7468 58.72 60.5335 54.72 60.1602C55.3066 49.6535 64 41.3335 74.6666 41.3335C85.3333 41.3335 94.08 49.7068 94.6133 60.2668Z" fill="#E8184A"/>
<path d="M125.333 156C142.27 156 156 142.27 156 125.334C156 108.397 142.27 94.667 125.333 94.667C108.397 94.667 94.6666 108.397 94.6666 125.334C94.6666 142.27 108.397 156 125.333 156Z" fill="#E8184A"/>
<path d="M106.667 125.334C106.667 110.454 117.269 98.0537 131.333 95.2643C129.392 94.8803 127.387 94.667 125.333 94.667C108.395 94.667 94.6666 108.395 94.6666 125.334C94.6666 142.272 108.395 156 125.333 156C127.387 156 129.392 155.792 131.333 155.403C117.269 152.614 106.667 140.214 106.667 125.334Z" fill="black" fill-opacity="0.2"/>
<path d="M64 100H52C43.1627 100 36 107.163 36 116V134.667H48V116C48 107.163 55.1627 100 64 100Z" fill="#D5DBE1"/>
<path d="M66.6667 61.3335C66.6667 52.3948 72.5707 44.9122 80.6667 42.3522C78.7627 41.7495 76.7734 41.3335 74.6667 41.3335C63.6214 41.3335 54.6667 50.2882 54.6667 61.3335C54.6667 72.3788 63.6214 81.3335 74.6667 81.3335C76.7734 81.3335 78.7627 80.9175 80.6667 80.3148C72.5707 77.7548 66.6667 70.2722 66.6667 61.3335Z" fill="#D5DBE1"/>
<path d="M80.656 42.3415C78.7573 41.7388 76.768 41.3335 74.6666 41.3335C64 41.3335 55.3066 49.6535 54.72 60.1602C56.9333 60.3682 61.5946 60.4642 66.8853 59.0775C67.7706 51.1415 73.2586 44.6828 80.656 42.3415Z" fill="#BA133B"/>
<path d="M92.7893 64.4055C86.5973 64.4055 82.0106 60.7042 79.312 57.7122C69.2586 64.8428 57.8933 64.4855 54.3413 64.1442L55.0933 56.1815C58.208 56.4748 68.9706 56.8162 77.2693 49.0775C78.1653 48.2455 79.3866 47.8668 80.592 48.0482C81.8026 48.2295 82.8586 48.9495 83.4666 50.0108C83.4986 50.0642 87.7973 57.2162 94.0106 56.3148L95.2213 64.2188C94.384 64.3468 93.5733 64.4055 92.7893 64.4055Z" fill="black"/>
<path d="M74.6667 85.333C61.4347 85.333 50.6667 74.565 50.6667 61.333C50.6667 48.101 61.4347 37.333 74.6667 37.333C87.8988 37.333 98.6667 48.101 98.6667 61.333C98.6667 74.565 87.8988 85.333 74.6667 85.333ZM74.6667 45.333C65.8454 45.333 58.6667 52.5117 58.6667 61.333C58.6667 70.1543 65.8454 77.333 74.6667 77.333C83.4881 77.333 90.6667 70.1543 90.6667 61.333C90.6667 52.5117 83.4881 45.333 74.6667 45.333Z" fill="black"/>
<path d="M125.333 160C106.219 160 90.6667 144.448 90.6667 125.333C90.6667 106.219 106.219 90.6665 125.333 90.6665C144.448 90.6665 160 106.219 160 125.333C160 144.448 144.448 160 125.333 160ZM125.333 98.6665C110.629 98.6665 98.6667 110.629 98.6667 125.333C98.6667 140.037 110.629 152 125.333 152C140.037 152 152 140.037 152 125.333C152 110.629 140.037 98.6665 125.333 98.6665Z" fill="black"/>
<path d="M113.146 131.837L131.814 113.17L137.471 118.827L118.803 137.494L113.146 131.837Z" fill="black"/>
<path d="M113.146 118.829L118.803 113.172L137.471 131.84L131.814 137.496L113.146 118.829Z" fill="black"/>
<path d="M79.9999 138.667H35.9999C33.7919 138.667 31.9999 136.875 31.9999 134.667V116C31.9999 104.971 40.9759 96 51.9999 96H85.4399V104H51.9999C45.3865 104 39.9999 109.381 39.9999 116V130.667H79.9999V138.667Z" fill="black"/>
</svg>
