<svg width="192" height="192" viewBox="0 0 192 192" fill="none" xmlns="http://www.w3.org/2000/svg">
<path d="M44.6772 22.2236C81.5678 22.2236 106.901 3.11426 124.677 3.11426C142.453 3.11426 179.786 13.3329 179.786 95.1089C179.786 176.885 129.562 188.885 110.01 188.885C18.4532 188.89 -20.6562 22.2236 44.6772 22.2236Z" fill="#EFEFEF"/>
<path d="M143.482 19.2874L147.253 15.5161L154.796 23.0586L151.024 26.8298L143.482 19.2874Z" fill="#A4AFC1"/>
<path d="M165.164 40.9727L168.935 37.2014L176.478 44.7439L172.706 48.5151L165.164 40.9727Z" fill="#A4AFC1"/>
<path d="M164.221 23.0608L171.763 15.5183L175.534 19.2896L167.992 26.832L164.221 23.0608Z" fill="#A4AFC1"/>
<path d="M113.333 134.666H36V116C36 107.162 43.1627 99.9998 52 99.9998H97.3333C106.171 99.9998 113.333 107.162 113.333 116V134.666Z" fill="#F3F3F1"/>
<path d="M74.6667 81.3335C85.7124 81.3335 94.6667 72.3792 94.6667 61.3335C94.6667 50.2878 85.7124 41.3335 74.6667 41.3335C63.6211 41.3335 54.6667 50.2878 54.6667 61.3335C54.6667 72.3792 63.6211 81.3335 74.6667 81.3335Z" fill="#F3F3F1"/>
<path d="M94.6133 60.2668C85.5466 61.6535 80 52.0002 80 52.0002C70.6133 60.7468 58.72 60.5335 54.72 60.1602C55.3066 49.6535 64 41.3335 74.6666 41.3335C85.3333 41.3335 94.08 49.7068 94.6133 60.2668Z" fill="#2FDF84"/>
<path d="M125.333 156C142.27 156 156 142.27 156 125.334C156 108.397 142.27 94.667 125.333 94.667C108.396 94.667 94.6665 108.397 94.6665 125.334C94.6665 142.27 108.396 156 125.333 156Z" fill="#2FDF84"/>
<path d="M106.667 125.334C106.667 110.454 117.269 98.0537 131.333 95.2643C129.392 94.8803 127.387 94.667 125.333 94.667C108.395 94.667 94.6665 108.395 94.6665 125.334C94.6665 142.272 108.395 156 125.333 156C127.387 156 129.392 155.792 131.333 155.403C117.269 152.614 106.667 140.214 106.667 125.334Z" fill="#00B871"/>
<path d="M64 99.9998H52C43.1627 99.9998 36 107.162 36 116V134.666H48V116C48 107.162 55.1627 99.9998 64 99.9998Z" fill="#D5DBE1"/>
<path d="M66.6667 61.3335C66.6667 52.3948 72.5707 44.9122 80.6667 42.3522C78.7627 41.7495 76.7734 41.3335 74.6667 41.3335C63.6214 41.3335 54.6667 50.2882 54.6667 61.3335C54.6667 72.3788 63.6214 81.3335 74.6667 81.3335C76.7734 81.3335 78.7627 80.9175 80.6667 80.3148C72.5707 77.7548 66.6667 70.2722 66.6667 61.3335Z" fill="#D5DBE1"/>
<path d="M80.656 42.3415C78.7573 41.7388 76.768 41.3335 74.6666 41.3335C64 41.3335 55.3066 49.6535 54.72 60.1602C56.9333 60.3682 61.5946 60.4642 66.8853 59.0775C67.7706 51.1415 73.2586 44.6828 80.656 42.3415Z" fill="#00B871"/>
<path d="M92.7894 64.4055C86.5974 64.4055 82.0107 60.7042 79.312 57.7122C69.248 64.8482 57.8613 64.4695 54.3467 64.1442L55.0933 56.1815C58.192 56.4748 68.9707 56.8215 77.2747 49.0775C78.1654 48.2455 79.3814 47.8668 80.5974 48.0482C81.8027 48.2295 82.8587 48.9495 83.472 50.0108C83.504 50.0642 87.8027 57.2162 94.016 56.3148L95.2267 64.2188C94.384 64.3468 93.5734 64.4055 92.7894 64.4055Z" fill="black"/>
<path d="M74.6667 85.333C61.4347 85.333 50.6667 74.565 50.6667 61.333C50.6667 48.101 61.4347 37.333 74.6667 37.333C87.8988 37.333 98.6667 48.101 98.6667 61.333C98.6667 74.565 87.8988 85.333 74.6667 85.333ZM74.6667 45.333C65.8454 45.333 58.6667 52.5117 58.6667 61.333C58.6667 70.1543 65.8454 77.333 74.6667 77.333C83.4881 77.333 90.6667 70.1543 90.6667 61.333C90.6667 52.5117 83.4881 45.333 74.6667 45.333Z" fill="black"/>
<path d="M125.333 160C106.219 160 90.6667 144.448 90.6667 125.333C90.6667 106.219 106.219 90.6665 125.333 90.6665C144.448 90.6665 160 106.219 160 125.333C160 144.448 144.448 160 125.333 160ZM125.333 98.6665C110.629 98.6665 98.6667 110.629 98.6667 125.333C98.6667 140.037 110.629 152 125.333 152C140.037 152 152 140.037 152 125.333C152 110.629 140.037 98.6665 125.333 98.6665Z" fill="black"/>
<path d="M120 138.666C118.939 138.666 117.92 138.245 117.173 137.493L106.507 126.826L112.165 121.168L119.808 128.81L135.659 110.698L141.68 115.962L123.013 137.296C122.283 138.128 121.243 138.624 120.133 138.661C120.091 138.666 120.043 138.666 120 138.666Z" fill="black"/>
<path d="M80 138.667H36C33.792 138.667 32 136.875 32 134.667V116C32 104.971 40.9707 96 52 96H85.44V104H52C45.3813 104 40 109.381 40 116V130.667H80V138.667Z" fill="black"/>
</svg>
