<svg width="95" height="15" viewBox="0 0 95 15" fill="none" xmlns="http://www.w3.org/2000/svg">
<path d="M3.87825 4.14888V5.91914H9.77856V9.11555H3.87825V14.3086H0.190552V0.766846H10.1868V4.15341H3.87825V4.14888Z" fill="white"/>
<path d="M22.4126 14.3042H18.6152C18.4484 13.942 18.3737 13.5255 18.3562 12.9369L18.2991 11.3975C18.242 9.85819 17.544 9.62728 16.5123 9.62728H14.5938V14.3042H10.9061V0.762451H17.3596C20.9376 0.762451 22.2458 2.664 22.2458 4.77381C22.2458 6.08678 21.6005 7.30468 20.2 7.95211C21.7322 8.54069 21.9517 9.68161 22.0087 11.1259L22.0834 12.9324C22.1009 13.5028 22.2282 13.9782 22.4126 14.3042ZM16.8064 6.8474C17.8952 6.8474 18.4484 6.27694 18.4484 5.28995C18.4484 4.32106 17.8952 3.72796 16.8064 3.72796H14.5938V6.8474H16.8064Z" fill="white"/>
<path d="M26.9744 4.14902V5.93738H33.0591V9.09304H26.9744V10.9176H33.6518V14.3042H23.2867V0.762451H33.6518V4.14902H26.9744Z" fill="white"/>
<path d="M47.5384 0.762451L42.7269 9.09304V14.3042H39.0392V9.09304L34.153 0.762451H38.3016L39.1489 2.28369C39.7591 3.3884 40.365 4.48858 40.9576 5.59329C41.5108 4.47047 42.121 3.31143 42.6917 2.26558L43.5039 0.762451H47.5384Z" fill="white"/>
<path d="M46.6774 9.85329H50.2202C50.2553 11.4515 51.2694 11.7186 52.6918 11.7186C53.9474 11.7186 54.5357 11.2613 54.5357 10.5007C54.5357 9.722 54.0747 9.45487 52.4679 9.18775L51.4362 9.01571C48.4685 8.52221 46.8793 7.09605 46.8793 4.64215C46.8793 2.30143 48.5783 0.45874 52.266 0.45874C55.7342 0.45874 57.7229 1.96187 57.8721 4.92738H54.404C54.3469 3.86342 53.7586 3.34728 52.3187 3.34728C51.1553 3.34728 50.6416 3.76381 50.6416 4.4701C50.6416 5.28958 51.2519 5.57481 52.5601 5.80119L53.6489 5.99134C56.858 6.54369 58.3331 7.79781 58.3331 10.2155C58.3331 13.2399 55.9712 14.6072 52.5426 14.6072C48.5783 14.6072 46.6774 12.6286 46.6774 9.85329Z" fill="white"/>
<path d="M58.4296 7.53082C58.4296 3.21159 61.2348 0.454346 65.3264 0.454346C69.4005 0.454346 72.2233 3.21159 72.2233 7.53082C72.2233 11.8501 69.4005 14.6073 65.3264 14.6073C61.2348 14.6073 58.4296 11.8501 58.4296 7.53082ZM68.3863 7.53082C68.3863 5.13578 67.1703 3.74584 65.3264 3.74584C63.4826 3.74584 62.2665 5.13578 62.2665 7.53082C62.2665 9.94398 63.4826 11.3158 65.3264 11.3158C67.1703 11.3158 68.3863 9.94851 68.3863 7.53082Z" fill="white"/>
<path d="M76.7667 4.14888V5.91914H82.667V9.11555H76.7667V14.3086H73.079V0.766846H83.0753V4.15341H76.7667V4.14888Z" fill="white"/>
<path d="M94.9992 4.14902H91.1272V14.3042H87.4395V4.14902H83.5674V0.762451H94.9992V4.14902Z" fill="white"/>
</svg>
