<svg xmlns="http://www.w3.org/2000/svg" width="1000" height="167" overflow="visible">
  <path opacity=".1" d="M994 154.8H661.9c0 .1 0 .1.1.2H549c-9.9 0-18-8.1-18-18V30c0-16.2-13-29.5-29.1-30-.7 0-1.4 0-2 .1-.6 0-1.3-.1-1.9-.1-16.1.5-29 13.8-29 30v107c0 9.9-8.1 18-18 18h-84v-.2H6c-3.3 0-6 2.7-6 6s2.7 6 6 6h21.4c0 .1-.1.1-.1.2H451c9.8 0 18.5-4.7 24-12 3.8-5 6-11.3 6-18V30c0-9.6 7.5-17.4 17-18h3.9c9.5.5 17.1 8.4 17.1 18v107c0 6.8 2.2 13 6 18 5.5 7.3 14.2 12 24 12h420.4c0-.1-.1-.1-.1-.2H994c3.3 0 6-2.7 6-6s-2.7-6-6-6zM476.8 122c0 1.1-.9 2-2 2s-2-.9-2-2V82c0-.5.2-.9.5-1.3l.1-.1c.1-.1.2-.2.3-.2h.1c.1-.1.2-.1.3-.1.1 0 .2-.1.3-.1h.8c.1 0 .2.1.3.1.1 0 .2.1.3.2 0 0 .1 0 .1.1l.2.2.1.1c.3.4.5.8.5 1.3V122z"/>
  <path fill="#484A4A" d="M488.2 95.4c-.4.4-.9.6-1.4.6-.5 0-1-.2-1.4-.6l-3-3L481 91l-.2-.2-1.2-1.2-2.8-2.8V122c0 1.1-.9 2-2 2s-2-.9-2-2V86.8l-.8.8-2.8 2.8-2.8 2.8-2.2 2.2c-.8.8-2.1.8-2.8 0-.8-.8-.8-2 0-2.8l2.2-2.2 2.8-2.8 2.4-2.4.2-.2 3-3 1.2-1.2.1-.1c.1-.1.2-.2.3-.2h.1c.1-.1.2-.1.3-.1.1 0 .2-.1.3-.1h.8c.1 0 .2.1.3.1.1 0 .2.1.3.2 0 0 .1 0 .1.1l.2.2.1.1 4.5 4.5.2.2 1.4 1.4 2.8 2.8 3 3c1 .4 1 1.7.2 2.5zM538.2 87.4l-3 3-2.8 2.8-6.1 6.1-.1.1-.2.2s-.1 0-.1.1c-.1.1-.2.1-.3.2h-.1c-.1 0-.2.1-.3.1h-.8c-.1 0-.2 0-.3-.1-.1 0-.2 0-.2-.1-.1 0-.1-.1-.2-.1h-.1c-.1-.1-.2-.2-.3-.2l-.1-.1L522 98l-3-3-.2-.2-2.4-2.4-2.8-2.8-2.2-2.2c-.8-.8-.8-2 0-2.8.8-.8 2-.8 2.8 0l2.2 2.2 2.4 2.4.4.4 2.8 2.8.8.8V58c0-1.1.9-2 2-2s2 .9 2 2v35.2l2.8-2.8 1.2-1.2.2-.2 1.4-1.4 3-3c.8-.8 2-.8 2.8 0 .8.7.8 2 0 2.8z"/>
</svg>
